<mxfile host="app.diagrams.net" agent="Mozilla/5.0 (Windows NT 10.0; Win64; x64) AppleWebKit/537.36 (KHTML, like Gecko) Chrome/131.0.0.0 Safari/537.36" version="24.8.6">
  <diagram name="Page-1" id="8OFwcd1wNf0_ELa9p5rf">
    <mxGraphModel dx="1050" dy="625" grid="1" gridSize="10" guides="1" tooltips="1" connect="1" arrows="1" fold="1" page="1" pageScale="1" pageWidth="850" pageHeight="1100" math="0" shadow="0">
      <root>
        <mxCell id="0" />
        <mxCell id="1" parent="0" />
        <mxCell id="4CFCMua-OZWBw-4zrm3i-4" value="" style="edgeStyle=orthogonalEdgeStyle;rounded=0;orthogonalLoop=1;jettySize=auto;html=1;" edge="1" parent="1" source="4CFCMua-OZWBw-4zrm3i-1" target="4CFCMua-OZWBw-4zrm3i-3">
          <mxGeometry relative="1" as="geometry" />
        </mxCell>
        <mxCell id="4CFCMua-OZWBw-4zrm3i-1" value="Start" style="ellipse;whiteSpace=wrap;html=1;" vertex="1" parent="1">
          <mxGeometry x="365" y="30" width="120" height="80" as="geometry" />
        </mxCell>
        <mxCell id="4CFCMua-OZWBw-4zrm3i-6" value="" style="edgeStyle=orthogonalEdgeStyle;rounded=0;orthogonalLoop=1;jettySize=auto;html=1;" edge="1" parent="1" source="4CFCMua-OZWBw-4zrm3i-3" target="4CFCMua-OZWBw-4zrm3i-5">
          <mxGeometry relative="1" as="geometry" />
        </mxCell>
        <mxCell id="4CFCMua-OZWBw-4zrm3i-3" value="nhập a, b" style="shape=parallelogram;perimeter=parallelogramPerimeter;whiteSpace=wrap;html=1;fixedSize=1;" vertex="1" parent="1">
          <mxGeometry x="365" y="200" width="120" height="60" as="geometry" />
        </mxCell>
        <mxCell id="4CFCMua-OZWBw-4zrm3i-8" value="" style="edgeStyle=orthogonalEdgeStyle;rounded=0;orthogonalLoop=1;jettySize=auto;html=1;" edge="1" parent="1" source="4CFCMua-OZWBw-4zrm3i-5" target="4CFCMua-OZWBw-4zrm3i-7">
          <mxGeometry relative="1" as="geometry" />
        </mxCell>
        <mxCell id="4CFCMua-OZWBw-4zrm3i-15" value="" style="edgeStyle=orthogonalEdgeStyle;rounded=0;orthogonalLoop=1;jettySize=auto;html=1;" edge="1" parent="1" source="4CFCMua-OZWBw-4zrm3i-5" target="4CFCMua-OZWBw-4zrm3i-14">
          <mxGeometry relative="1" as="geometry" />
        </mxCell>
        <mxCell id="4CFCMua-OZWBw-4zrm3i-5" value="a != 0" style="rhombus;whiteSpace=wrap;html=1;" vertex="1" parent="1">
          <mxGeometry x="385" y="330" width="80" height="80" as="geometry" />
        </mxCell>
        <mxCell id="4CFCMua-OZWBw-4zrm3i-11" value="" style="edgeStyle=orthogonalEdgeStyle;rounded=0;orthogonalLoop=1;jettySize=auto;html=1;" edge="1" parent="1" source="4CFCMua-OZWBw-4zrm3i-7" target="4CFCMua-OZWBw-4zrm3i-10">
          <mxGeometry relative="1" as="geometry" />
        </mxCell>
        <mxCell id="4CFCMua-OZWBw-4zrm3i-13" value="" style="edgeStyle=orthogonalEdgeStyle;rounded=0;orthogonalLoop=1;jettySize=auto;html=1;" edge="1" parent="1" source="4CFCMua-OZWBw-4zrm3i-7" target="4CFCMua-OZWBw-4zrm3i-12">
          <mxGeometry relative="1" as="geometry" />
        </mxCell>
        <mxCell id="4CFCMua-OZWBw-4zrm3i-7" value="b != 0" style="rhombus;whiteSpace=wrap;html=1;" vertex="1" parent="1">
          <mxGeometry x="545" y="330" width="80" height="80" as="geometry" />
        </mxCell>
        <mxCell id="4CFCMua-OZWBw-4zrm3i-9" value="S" style="text;html=1;align=center;verticalAlign=middle;resizable=0;points=[];autosize=1;strokeColor=none;fillColor=none;" vertex="1" parent="1">
          <mxGeometry x="485" y="338" width="30" height="30" as="geometry" />
        </mxCell>
        <mxCell id="4CFCMua-OZWBw-4zrm3i-10" value="pt Vô Số Nghiệm" style="shape=parallelogram;perimeter=parallelogramPerimeter;whiteSpace=wrap;html=1;fixedSize=1;" vertex="1" parent="1">
          <mxGeometry x="685" y="340" width="120" height="60" as="geometry" />
        </mxCell>
        <mxCell id="4CFCMua-OZWBw-4zrm3i-12" value="pt Vô Nghiệm" style="shape=parallelogram;perimeter=parallelogramPerimeter;whiteSpace=wrap;html=1;fixedSize=1;" vertex="1" parent="1">
          <mxGeometry x="525" y="500" width="120" height="60" as="geometry" />
        </mxCell>
        <mxCell id="4CFCMua-OZWBw-4zrm3i-14" value="pt có nghiệm -b/a" style="shape=parallelogram;perimeter=parallelogramPerimeter;whiteSpace=wrap;html=1;fixedSize=1;" vertex="1" parent="1">
          <mxGeometry x="365" y="540" width="120" height="60" as="geometry" />
        </mxCell>
        <mxCell id="4CFCMua-OZWBw-4zrm3i-16" value="S" style="text;html=1;align=center;verticalAlign=middle;resizable=0;points=[];autosize=1;strokeColor=none;fillColor=none;" vertex="1" parent="1">
          <mxGeometry x="635" y="338" width="30" height="30" as="geometry" />
        </mxCell>
        <mxCell id="4CFCMua-OZWBw-4zrm3i-17" value="" style="endArrow=classic;html=1;rounded=0;exitX=0.5;exitY=1;exitDx=0;exitDy=0;" edge="1" parent="1" source="4CFCMua-OZWBw-4zrm3i-14">
          <mxGeometry width="50" height="50" relative="1" as="geometry">
            <mxPoint x="400" y="550" as="sourcePoint" />
            <mxPoint x="540" y="680" as="targetPoint" />
            <Array as="points">
              <mxPoint x="425" y="680" />
            </Array>
          </mxGeometry>
        </mxCell>
        <mxCell id="4CFCMua-OZWBw-4zrm3i-18" value="" style="endArrow=classic;html=1;rounded=0;exitX=0.435;exitY=1.03;exitDx=0;exitDy=0;exitPerimeter=0;" edge="1" parent="1" source="4CFCMua-OZWBw-4zrm3i-12">
          <mxGeometry width="50" height="50" relative="1" as="geometry">
            <mxPoint x="400" y="550" as="sourcePoint" />
            <mxPoint x="577" y="640" as="targetPoint" />
          </mxGeometry>
        </mxCell>
        <mxCell id="4CFCMua-OZWBw-4zrm3i-19" value="" style="endArrow=classic;html=1;rounded=0;exitX=0.442;exitY=1.057;exitDx=0;exitDy=0;exitPerimeter=0;" edge="1" parent="1" source="4CFCMua-OZWBw-4zrm3i-10" target="4CFCMua-OZWBw-4zrm3i-20">
          <mxGeometry width="50" height="50" relative="1" as="geometry">
            <mxPoint x="400" y="550" as="sourcePoint" />
            <mxPoint x="650" y="660" as="targetPoint" />
            <Array as="points">
              <mxPoint x="740" y="680" />
            </Array>
          </mxGeometry>
        </mxCell>
        <mxCell id="4CFCMua-OZWBw-4zrm3i-20" value="End" style="ellipse;whiteSpace=wrap;html=1;aspect=fixed;" vertex="1" parent="1">
          <mxGeometry x="545" y="640" width="80" height="80" as="geometry" />
        </mxCell>
        <mxCell id="4CFCMua-OZWBw-4zrm3i-21" value="Đ" style="text;html=1;align=center;verticalAlign=middle;resizable=0;points=[];autosize=1;strokeColor=none;fillColor=none;" vertex="1" parent="1">
          <mxGeometry x="395" y="448" width="30" height="30" as="geometry" />
        </mxCell>
        <mxCell id="4CFCMua-OZWBw-4zrm3i-22" value="Đ" style="text;html=1;align=center;verticalAlign=middle;resizable=0;points=[];autosize=1;strokeColor=none;fillColor=none;" vertex="1" parent="1">
          <mxGeometry x="555" y="438" width="30" height="30" as="geometry" />
        </mxCell>
      </root>
    </mxGraphModel>
  </diagram>
</mxfile>
